<?xml version="1.0" encoding="utf-8"?>
<!-- Generator: Adobe Illustrator 26.5.0, SVG Export Plug-In . SVG Version: 6.00 Build 0)  -->
<svg version="1.0" id="katman_1" xmlns="http://www.w3.org/2000/svg" xmlns:xlink="http://www.w3.org/1999/xlink" x="0px" y="0px"
	 viewBox="0 0 1190.55 841.89" style="enable-background:new 0 0 1190.55 841.89;" xml:space="preserve">
<style type="text/css">
	.st0{clip-path:url(#SVGID_00000076584663215747902740000015724690005501284256_);}
	.st1{fill:#EA581A;}
</style>
<g>
	<defs>
		<rect id="SVGID_1_" x="85.27" y="194.85" width="1019.41" height="452.7"/>
	</defs>
	<clipPath id="SVGID_00000126323652013982359840000013112948014760093314_">
		<use xlink:href="#SVGID_1_"  style="overflow:visible;"/>
	</clipPath>
	<g style="clip-path:url(#SVGID_00000126323652013982359840000013112948014760093314_);">
		<path class="st1" d="M1098.39,532.77h-45.07l46.72-144.47c1.33-4.31-1-7.29-5.3-7.29h-97.08c-4,0-6.3,2.32-6.3,6.3v24.54
			c0,4,2.32,6.29,6.3,6.29h39.76l-47,144.47c-1.33,4.31,1,7.29,5.63,7.29h102.39c4,0,6.29-2.32,6.29-6.3v-24.54
			C1104.68,535.09,1102.36,532.77,1098.39,532.77z"/>
		<path class="st1" d="M976.79,540.39V387.31c0-4-2.32-6.3-6.3-6.3h-37.44c-4.31,0-6.63,2.32-6.63,6.3v13.25h-3.64
			c-3.32-13.92-13.26-21.87-31.48-21.87c-27.5,0-43.07,17.89-43.07,77.21v39.43c0,59.31,15.24,76.87,43.07,76.87
			c19.88,0,30.82-9.28,33.8-26.51h4l4.31,18.55c1,3.65,3.31,5.64,7,5.64h34.79c4.64,0,6.3-3,5.63-7L976.79,540.39z M926.42,505.27
			c0,24.51-4,29.82-13.58,29.82c-9.28,0-13.26-5.31-13.26-29.49v-62.3c0-24.52,4.31-29.82,13.26-29.82c9.61,0,13.58,5.3,13.58,30.16
			V505.27z"/>
		<path class="st1" d="M831.99,381.34l-36.11,25.85h-2.32v-19.88c0-4-2.32-6.3-6.3-6.3h-35.45c-4,0-6.3,2.32-6.3,6.3v176.27
			c0,4,2.32,6.3,6.3,6.3h37.77c4.31,0,6.3-2.32,6.3-6.3V457.85l39.76-28.49c3-2.32,4-4.31,4-7.62v-36.42
			C839.61,380.35,835.97,378.36,831.99,381.34z"/>
		<path class="st1" d="M726.96,540.39V387.31c0-4-2.32-6.3-6.3-6.3h-37.39c-4.31,0-6.63,2.32-6.63,6.3v13.25H673
			c-3.31-13.92-13.25-21.87-31.48-21.87c-27.5,0-43.07,17.89-43.07,77.21v39.43c0,59.31,15.24,76.87,43.07,76.87
			c19.88,0,30.82-9.28,33.8-26.51h4l4.3,18.55c1,3.65,3.32,5.64,7,5.64h34.65c4.64,0,6.3-3,5.63-7L726.96,540.39z M676.59,505.27
			c0,24.51-4,29.82-13.58,29.82c-9.28,0-13.25-5.31-13.25-29.49v-62.3c0-24.52,4.3-29.82,13.25-29.82c9.61,0,13.58,5.3,13.58,30.16
			V505.27z"/>
		<path class="st1" d="M503.97,318.06h-54.34c-4.31,0-6.3,2.32-6.3,6.29v239.23c0,4,2,6.3,6.3,6.3h54.34
			c54,0,78.86-24.52,78.86-109.35V427.4C582.83,340.26,556.32,318.06,503.97,318.06z M529.81,483.73c0,37.11-7,44.4-24.52,44.4
			h-9.94V358.85h9.92c17.56,0,24.52,6.3,24.52,44.4L529.81,483.73z"/>
		<path class="st1" d="M342.72,261.95L229.4,196.68c-6.62-4-11.92-1.33-11.92,6.62v139.17l112.65,64.94c6.63,4,6.63,9.94,0,13.92
			l-100.73,58c-6.62,4-11.92,1.33-11.92-6.62V342.47L92.27,414.7c-5,3-7,6.3-7,11.93v138.5c0,5.63,2,9,7,11.93l118.29,68.26
			c5,3,8.94,3,13.91,0l118.29-68.26c5-3,7-6.3,7-11.93V273.85C349.68,268.25,347.69,264.93,342.72,261.95z"/>
	</g>
</g>
</svg>
