<svg xmlns="http://www.w3.org/2000/svg" viewBox="0 0 427.25 228.44"><defs><style>.cls-1,.cls-3{fill:#b01e1d;}.cls-1,.cls-2{fill-rule:evenodd;}.cls-2{fill:#fff100;}</style></defs><title>India Post</title><g id="Layer_2" data-name="Layer 2"><g id="Layer_1-2" data-name="Layer 1"><polygon class="cls-1" points="63.5 51.71 324.68 51.71 324.68 199.24 63.5 199.24 63.5 51.71 63.5 51.71"/><path class="cls-2" d="M323.36,69.22c-.74,1-6.1,4.5-7.63,5.49-10.89,7-26.82,19.41-37.8,27.28-10.3,7.39-19.74,14.56-30.17,21.75-24.45,16.82-58.7,41.42-90.28,39.55a45.87,45.87,0,0,1-19.8-6.15C125,150,121.87,140.22,112,130.86c-10.57-10-17.9-14.39-30.94-21-3.73-1.9-17.76-7-18.33-7.59C55.92,100.76,37.24,94,31,95.13a221.5,221.5,0,0,0-23.41,5.92L0,103.61c.65.89-.38.72,3.71.68,8.3-.07,12.79.74,21.05,1.88,1.65.23,2.7.25,4.2.51,9.71,1.76,13.07,2.45,22.78,4.88,2.58.64,9.5,2.24,11,3.13,8.3,1,27.64,11.79,34.75,16.9,1.64,1.17,9.23,7.32,10.44,8.78s2.19,2.07,3.33,3.41c3.07,3.63,9,11.19,12,14,22.3,20.42,49.47,18,78,4.12,20.25-9.84,44.7-27.57,62.48-41.05,14.35-10.87,29.94-22.9,44.42-33.46,2.35-1.7,13.77-10.18,15.25-10.8l29.87-20.3c2.42-1.78,6.63-4,9.48-5.69l13-7.25c1.24-.67,2.18-1.07,3.31-1.74l10.08-5.1c.72-.36.6-.35,1.57-.79l29.72-13.44c1.34-.54,2.23-.92,3.57-1.49,1.71-.74,2.69-1,3.27-1.79-2.12,0-8.34,2.26-11,3.12C408.53,24.51,393,30.77,385,34.39L356.32,48.87l-33,20.35Z"/><path class="cls-2" d="M318,57.42l-29.91,21c-18.8,13.81-39.94,29.09-59.32,42.15-18.41,12.41-49.56,31.66-73.36,26.24-15.95-3.63-20.36-15.67-27.61-23-15.34-15.54-24.32-21.72-44.56-31.31-10.39-4.92-9.64-3.87-20.52-2.86L46.54,91.81c.81,1.1.14.49,3.9,1.15,1.54.28,2.86.57,4.22.84,1.53.31,2.88.66,4.11,1a27.11,27.11,0,0,1,3.95,1.09c9.11,1.53,28.34,10.72,36.49,15.46,33.25,19.35,30.15,40.81,60.45,44.06C183.81,158,215,137.81,233,124.84c10.18-7.33,20.47-14.64,30.22-22.06,10-7.58,19.83-15,29.82-22.43C296,78.19,320.7,59.58,323.39,58.4l31.23-20.34,41.27-21.79c1-.48,1.77-.54,2.36-1.35-2.45.21-19.82,7.71-21.92,8.78-9.64,4.88-14.94,7-25.09,13-1.75,1-3.35,1.79-4.92,2.84-.77.52-1.44.9-2.29,1.41l-2.59,1.47c-.8.48-1.47.94-2.26,1.44l-11.76,7.47c-3.19,1.9-6.81,4.69-9.42,6.09Z"/><path class="cls-2" d="M294.33,57.42l-59.81,43c-17.47,11.7-48.69,33.87-70.27,32.46-15.6-1-39-38.25-57.51-45.26-2.68-1-16.65,0-20.41.25,1.25.8,6,2.12,7.8,2.91a110.31,110.31,0,0,1,20.58,12.13c8.55,6.33,16.48,13.06,22.63,20.88,6,7.58,13.1,16,27.56,16,12.19,0,25-5.62,33.6-10.32a263.18,263.18,0,0,0,26.84-16.66c8.63-6.17,16.88-11.89,25.28-18.22s16.44-12.36,24.79-18.72c2.67-2,22.48-17.29,25-18.62l6.32-4.64c.62-.48.9-.64,1.57-1.12l42.23-29.27c.72-.51,1.17-.72,1.48-1.55-2.65,1.4-5,2.63-7.62,4.19l-14.63,9c-1.2.8-2.29,1.28-3.58,2.16L312,45.35c-1.29.86-2.35,1.5-3.63,2.43-3.89,2.83-10.52,6.94-14,9.64Z"/><path class="cls-3" d="M238.52,14.09V12.3H174.33v1.79h16.55v4.73h-6.16A6.7,6.7,0,0,0,180.66,20,3.61,3.61,0,0,0,179,22.76a3.57,3.57,0,0,0,2.14,3.15,7.27,7.27,0,0,0,2.28.95,13.58,13.58,0,0,0,2.83.26h3.69a3.66,3.66,0,0,1,2.92,1.35A4.44,4.44,0,0,1,194,31.4a5.12,5.12,0,0,1-1.21,3.3,6.28,6.28,0,0,1-2.62,2,8.48,8.48,0,0,1-3,.52,9.17,9.17,0,0,1-3.78-.78,11.83,11.83,0,0,1-5.88-5.91,14.66,14.66,0,0,1-1.28-4.43l-1.37.05a25.06,25.06,0,0,0,1.55,5.28,14.94,14.94,0,0,0,3,4.16,11.15,11.15,0,0,0,8.2,3.63,10.14,10.14,0,0,0,6.77-2.33,7,7,0,0,0,2.77-5.5,6.55,6.55,0,0,0-.42-2.26,5.88,5.88,0,0,0-2.14-2.57,5,5,0,0,0-3-1.06h-4.38l-1.73-.15L184,24.83c-.88-.59-1.32-1.17-1.32-1.75A2,2,0,0,1,184,21.22a2.09,2.09,0,0,1,1.42-.57,4.64,4.64,0,0,1,1.77-.26h7.25v-6.3h6.2v21.6l-.18,1c-.49,1.19-1.2,1.68-2.14,1.47v1.1h7.75v-1l-.91-.16-.73-.57a1.33,1.33,0,0,1-.5-.79l-.14-22.6h16.46v6.36a10.26,10.26,0,0,0-3-2.19,7.29,7.29,0,0,0-5.84.24,8.33,8.33,0,0,0-2.5,2,9.05,9.05,0,0,0-2.28,6.27A9.36,9.36,0,0,0,208.84,33a7,7,0,0,0,5.52,2.61A9.1,9.1,0,0,0,220.24,33v2.68l-.18,1q-.69,1.79-2,1.47v1.1h7.66v-1.1a4.15,4.15,0,0,1-1.19-.21,2.2,2.2,0,0,1-.87-1.28l-.13-1.05V21.45c4-3.66,10.26-.19,10.35,5.28a7.12,7.12,0,0,1-1,3.74A5.93,5.93,0,0,1,230.26,33a3.77,3.77,0,0,1-1,.36,8.24,8.24,0,0,1-1.18.06l-1.78-.1L224.89,33v1.08l.55.42,1.27.61.64.21.55.2.91.11h.6a6,6,0,0,0,2.91-.64,8.69,8.69,0,0,0,2.51-2.08A9.43,9.43,0,0,0,237,26.75a11.44,11.44,0,0,0-.61-3.4,8.13,8.13,0,0,0-2.81-4,6.68,6.68,0,0,0-4.19-1.51,8.94,8.94,0,0,0-5.89,2.57v-6.3ZM220.24,31.86a8.8,8.8,0,0,1-1.09.76,5.44,5.44,0,0,1-1,.44,5,5,0,0,1-1.82.37h-.59a5.26,5.26,0,0,1-4.18-1.95,7.08,7.08,0,0,1-1.66-4.78,7.34,7.34,0,0,1,.13-1.39,6.62,6.62,0,0,1,4.12-4.95c2.2-.83,4.21.05,6.1,1.18Z"/><path class="cls-3" d="M77.33,26.23H74.1V19a7.63,7.63,0,0,0-1.24-4.8,6,6,0,0,0-10.13,1.47c-1.08,2.9.44,6.63,3.49,7.55a8.55,8.55,0,0,0,3.13.37,10.38,10.38,0,0,0,1.6-.36v3H68.63A5.15,5.15,0,0,0,64.7,27.9a5.47,5.47,0,0,0-1.55,3.82,5.54,5.54,0,0,0,.37,1.88,5.25,5.25,0,0,0,5.11,3,5.39,5.39,0,0,0,3.82-1.66,6.23,6.23,0,0,0,1.65-4V27.8h3.23ZM71,31.88l-.19,1.46-.45,1.2-.77.84a3.91,3.91,0,0,1-.91.26l-.87-.26a3.37,3.37,0,0,1-1.19-2l-.14-1.5a4.28,4.28,0,0,1,1.19-2.85,4.53,4.53,0,0,1,2.92-1.25H71ZM70.08,21a2.2,2.2,0,0,1-3.21.62c-1.4-1-1.72-4-1.21-5.61a5.66,5.66,0,0,1,.64-1.42c.84-1.26,2-1.68,3-.89C71.27,15.23,71.52,19.08,70.08,21Z"/><path class="cls-3" d="M141,12.3h-2.74V10.51a15.26,15.26,0,0,0-.59-4.1c-.9-2.76-2.33-4.64-4.27-5.62a5.75,5.75,0,0,0-3-.79,6.65,6.65,0,0,0-4.91,2.09,7.38,7.38,0,0,0-1.47,2.28,7,7,0,0,0-.44,2.53V8.37l.23.36v.63l.09.27.61,1.2a3.54,3.54,0,0,0,.55.89l3.13.06-.62-1.31-.43-1.05a1.82,1.82,0,0,1-.19-.78L126.87,8V6.91a7.48,7.48,0,0,1,.32-2A4.56,4.56,0,0,1,129.68,2a3.24,3.24,0,0,1,1.68-.41c1.06.14,1.95,1.06,2.67,2.78a15.53,15.53,0,0,1,1.09,6.1v1.78H74.69v1.85h3.42v21.6l-.18,1c-.49,1.19-1.21,1.68-2.15,1.47v1.1h7.75V38c-.72,0-2.14,0-2.14-1.34V14.09h6.4v21.6l-.18,1c-.49,1.19-1.2,1.68-2.14,1.47v1.1h7.74v-1l-.91-.16-.73-.57a1.38,1.38,0,0,1-.5-.79V14.09h6.11a15.15,15.15,0,0,1,3.06,1.1A7.29,7.29,0,0,1,104.43,22a8.16,8.16,0,0,1-.5,2.89,7.65,7.65,0,0,1-2.47,3.37,6.22,6.22,0,0,1-1.73.86,5.94,5.94,0,0,1-1.87.29l-2.37-.16-1.73-.52v1.15l1,.53a4,4,0,0,1,1,.79l.91,1a5.18,5.18,0,0,1,.78,1.21,13.31,13.31,0,0,0,3.46,4.42A7.82,7.82,0,0,0,103,38.92a6.69,6.69,0,0,0,2.1.34h.82l.73-.1.69-.16.59-.27,1.14-.75a5.21,5.21,0,0,0,.82-1.06l-.46-1.13-.86.79-.78.48a2.14,2.14,0,0,1-.73.26l-.73,0c-1.34,0-3.7-2.34-7.11-7l1.82-.11a5.63,5.63,0,0,0,1.6-.47l1.46-.68,1.37-1a7.63,7.63,0,0,0,2.59-5.6l-.13-1.42-.32-1.26-.55-1.15-.82-1.26a9.75,9.75,0,0,0-4.69-3.3h24.53v6.83l-1.41-.73-1.27-.51-.78-.22-.55-.17h-1.46a10.64,10.64,0,0,0-3.69.69,9.53,9.53,0,0,0-4.22,3.45,9.16,9.16,0,0,0-1.62,5.35,16.91,16.91,0,0,0,3.51,10.48l2.74-1.47A17.43,17.43,0,0,1,115,33.25a13.44,13.44,0,0,1-.78-4.26V27.82a6.59,6.59,0,0,1,.55-2.68A6.73,6.73,0,0,1,121,20.87h1.64a6.3,6.3,0,0,1,3.42,1.44v13.5l-.18,1a3,3,0,0,1-.55.9l-.72.48h-.87v1h7.79v-1h-1l-.73-.58a1.39,1.39,0,0,1-.5-.79l-.13-22.75h5.88v21.6l-.18,1q-.69,1.79-2.19,1.47v1.1h7.84v-1l-.91-.16-.78-.52a2.07,2.07,0,0,1-.5-.84l-.14-22.6h8.49a6.5,6.5,0,0,1,2.77,2.27,6.34,6.34,0,0,1,1,3.22,4.52,4.52,0,0,1-.27,1.58l-.78,1.27a3.92,3.92,0,0,1-2.5,1.12h-3.19L142,23v1.64a12.12,12.12,0,0,0,2.89,8.2,8.65,8.65,0,0,0,6.68,3.35,7.53,7.53,0,0,0,6.84-3.52v3l-.18,1a2.25,2.25,0,0,1-2.14,1.47v1.1h7.75v-1.1h-.87l-.73-.58a3,3,0,0,1-.68-1.85V14.09H165V12.3Zm17.37,1.79V31.16a4.66,4.66,0,0,1-1.23,1.32l-1.41,1-.87.37L154,34a2.4,2.4,0,0,1-.87.1h-.95a5.89,5.89,0,0,1-2.78-.68,8.46,8.46,0,0,1-3.83-5,11.22,11.22,0,0,1-.51-3.63l.41.33.41.19h2.47a8,8,0,0,0,2.05-.36,5.47,5.47,0,0,0,3.42-5.1V18.82a5.9,5.9,0,0,0-2.47-4,3.49,3.49,0,0,0-1.64-.72Z"/><path class="cls-3" d="M219.62,225.5V211.61a1.59,1.59,0,0,0-.28-1.06,1.26,1.26,0,0,0-1-.3h-1.29v-1.19h7.59v1.19h-1.29a1.28,1.28,0,0,0-1,.3,1.59,1.59,0,0,0-.28,1.06V225.5a1.6,1.6,0,0,0,.28,1.06,1.28,1.28,0,0,0,1,.3h1.29V228h-7.59v-1.18h1.29a1.27,1.27,0,0,0,1-.31,1.56,1.56,0,0,0,.27-1.05Zm8.28.27v-7.88a.71.71,0,0,0-.19-.56,1.11,1.11,0,0,0-.71-.17h-.93v-1l2-.13,2-.13h0v2.25h0a6,6,0,0,1,.69-1.22,3.53,3.53,0,0,1,3-1.43,3,3,0,0,1,2.53,1.25,5.37,5.37,0,0,1,.94,3.33v5.74a1.33,1.33,0,0,0,.27.95,1.3,1.3,0,0,0,.94.27H239v1h-5.86v-1h.67a1,1,0,0,0,1.21-1.22v-5.94a3.39,3.39,0,0,0-.55-2.06,1.84,1.84,0,0,0-1.56-.72,2.56,2.56,0,0,0-2.1,1,4.25,4.25,0,0,0-.8,2.66h0v5a1,1,0,0,0,1.21,1.22h.67v1H226v-1h.65a1,1,0,0,0,1.22-1.22ZM245,228.44a4,4,0,0,1-3.43-1.78,7.8,7.8,0,0,1-1.3-4.71,8,8,0,0,1,1.29-4.6,3.75,3.75,0,0,1,6.41-.2l.19.28h0v-6.74a.61.61,0,0,0-.25-.57,1.77,1.77,0,0,0-.9-.16h-1.18V208.9l2.21-.11,2.23-.12h0v17a1.24,1.24,0,0,0,.37,1.05,2.08,2.08,0,0,0,1.3.3h.19v1l-2,.13-2,.13h0v-2.16h0l-.3.57a3.15,3.15,0,0,1-2.86,1.7Zm.4-11.67a2.2,2.2,0,0,0-2.06,1.31,11.2,11.2,0,0,0,0,7.74,2.2,2.2,0,0,0,2,1.3,2.24,2.24,0,0,0,2.06-1.35,10.52,10.52,0,0,0,0-7.65,2.2,2.2,0,0,0-2-1.35Zm9.79,9v-7.88a.61.61,0,0,0-.24-.56,1.39,1.39,0,0,0-.82-.17h-1.09v-1l2.12-.13,2.13-.13h0v9.92a1,1,0,0,0,1.21,1.22h.67v1h-5.86v-1H254a1,1,0,0,0,1.21-1.22Zm1-16.71a1.29,1.29,0,0,1,1,.46,1.76,1.76,0,0,1,.39,1.13,1.79,1.79,0,0,1-.39,1.14,1.28,1.28,0,0,1-2,0,1.69,1.69,0,0,1-.4-1.14,1.66,1.66,0,0,1,.4-1.13,1.29,1.29,0,0,1,1-.46Zm7.89,19.38a3.27,3.27,0,0,1-2.36-.82,3,3,0,0,1-.85-2.29,3.45,3.45,0,0,1,1.45-2.72,9.33,9.33,0,0,1,4-1.72l1.79-.39h0v-1.3a2.75,2.75,0,0,0-.59-2,2.4,2.4,0,0,0-1.85-.62,3.1,3.1,0,0,0-1.91.44l-.15.16a.47.47,0,0,0-.07.46,1.85,1.85,0,0,0,.28.68,1.35,1.35,0,0,1,.17.74,1.13,1.13,0,0,1-.36.89,1.29,1.29,0,0,1-.92.34,1.05,1.05,0,0,1-.87-.46,2.06,2.06,0,0,1-.32-1.23,2.69,2.69,0,0,1,1.27-2.27,5.22,5.22,0,0,1,3.17-.91,4.48,4.48,0,0,1,3.21,1,4.38,4.38,0,0,1,1,3.2v5.88a1.61,1.61,0,0,0,.23.89.69.69,0,0,0,.59.34,1.61,1.61,0,0,0,.49-.07,1,1,0,0,0,.39-.2.39.39,0,0,1,.2-.06.26.26,0,0,1,.16.1.42.42,0,0,1,.1.2.41.41,0,0,1,0,.22,2.09,2.09,0,0,1-.78,1,2,2,0,0,1-1.21.37,1.85,1.85,0,0,1-1.6-.83,4.13,4.13,0,0,1-.46-1h0l-.5.57a5,5,0,0,1-3.62,1.47Zm4-4.86v-2h0l-1.06.23a7.3,7.3,0,0,0-3,1.21,2.52,2.52,0,0,0-.88,2,2.24,2.24,0,0,0,.51,1.51,1.64,1.64,0,0,0,1.3.58,2.85,2.85,0,0,0,2.27-1,3.94,3.94,0,0,0,.91-2.53Zm14,1.92V211.61a1.59,1.59,0,0,0-.27-1.06,1.31,1.31,0,0,0-1-.3h-1.28v-1.19h7.68a7.94,7.94,0,0,1,4.89,1.26,4.5,4.5,0,0,1,1.62,3.8,5,5,0,0,1-1.62,4.11,7.46,7.46,0,0,1-4.87,1.36c-.94,0-1.82,0-2.65-.07h0v6a1.64,1.64,0,0,0,.27,1.07,1.31,1.31,0,0,0,1,.3h1.28V228h-7.58v-1.18h1.28a1.25,1.25,0,0,0,1-.31,1.56,1.56,0,0,0,.27-1.05Zm2.52-7.13h0c.86,0,1.77.08,2.72.08a3.45,3.45,0,0,0,2.77-1.06,4.83,4.83,0,0,0,.89-3.21,4.47,4.47,0,0,0-.84-3.05,3.7,3.7,0,0,0-2.82-.91h-1.47a1.32,1.32,0,0,0-1,.29,1.82,1.82,0,0,0-.25,1.15v6.71Zm15.25,10.07a4.26,4.26,0,0,1-3.57-1.78A7.55,7.55,0,0,1,295,222a7.25,7.25,0,0,1,1.45-4.6,4.23,4.23,0,0,1,3.48-1.9,4.29,4.29,0,0,1,3.59,1.79,7.61,7.61,0,0,1,1.36,4.71,7.38,7.38,0,0,1-1.44,4.6,4.3,4.3,0,0,1-3.51,1.89Zm0-1.05a2.07,2.07,0,0,0,1.93-1.38,13,13,0,0,0,0-8.12,2,2,0,0,0-3.84,0,13.2,13.2,0,0,0,0,8.12,2.06,2.06,0,0,0,1.91,1.38Zm13.74-7.55a4.58,4.58,0,0,0-1.22-2.41,2.88,2.88,0,0,0-2.12-.93,2.29,2.29,0,0,0-1.56.53,1.81,1.81,0,0,0-.6,1.41,1.38,1.38,0,0,0,.66,1.21,8.2,8.2,0,0,0,2.42.9,7.27,7.27,0,0,1,3.14,1.4,3.41,3.41,0,0,1,.8,2.52,3.91,3.91,0,0,1-1,2.88,3.65,3.65,0,0,1-2.76,1.09,5.1,5.1,0,0,1-3.25-1.24h0l-.64,1.16h-.78v-4.94h.88a5.37,5.37,0,0,0,1.36,2.86,3.27,3.27,0,0,0,2.43,1.11,2.83,2.83,0,0,0,1.81-.56,1.82,1.82,0,0,0,.68-1.5,1.65,1.65,0,0,0-.72-1.42,9.05,9.05,0,0,0-2.69-1,6,6,0,0,1-2.82-1.32,3.58,3.58,0,0,1-.72-2.48,3.69,3.69,0,0,1,.93-2.63,3.22,3.22,0,0,1,2.48-1,4.77,4.77,0,0,1,2.91,1h0l.52-.95h.77v4.31h-.86Zm4.86,5.66V217h-1.87v-1.2a2.66,2.66,0,0,0,2-1.19,8.8,8.8,0,0,0,1-4.06h1v5.27h3.34V217H320.6V225a2.44,2.44,0,0,0,.33,1.43,1.09,1.09,0,0,0,1,.49,1.43,1.43,0,0,0,1.35-.8,7,7,0,0,0,.54-2.71l.88,0a7.14,7.14,0,0,1-.88,3.8,2.87,2.87,0,0,1-2.53,1.25,2.67,2.67,0,0,1-2-.82,2.91,2.91,0,0,1-.77-2.12Z"/></g></g></svg>