<svg width="3000" height="3000" viewBox="0 0 3000 3000" fill="none" xmlns="http://www.w3.org/2000/svg">
<rect width="3000" height="3000" fill="white"/>
<g clip-path="url(#clip0_101_163)">
<path d="M2003.12 2472.92H1958.05L2004.77 2328.45C2006.1 2324.14 2003.77 2321.16 1999.47 2321.16H1902.39C1898.39 2321.16 1896.09 2323.48 1896.09 2327.46V2352C1896.09 2356 1898.41 2358.29 1902.39 2358.29H1942.15L1895.15 2502.76C1893.82 2507.07 1896.15 2510.05 1900.78 2510.05H2003.17C2007.17 2510.05 2009.46 2507.73 2009.46 2503.75V2479.21C2009.41 2475.24 2007.09 2472.92 2003.12 2472.92Z" fill="#F85606"/>
<path d="M1881.52 2480.54V2327.46C1881.52 2323.46 1879.2 2321.16 1875.22 2321.16H1837.78C1833.47 2321.16 1831.15 2323.48 1831.15 2327.46V2340.71H1827.51C1824.19 2326.79 1814.25 2318.84 1796.03 2318.84C1768.53 2318.84 1752.96 2336.73 1752.96 2396.05V2435.48C1752.96 2494.79 1768.2 2512.35 1796.03 2512.35C1815.91 2512.35 1826.85 2503.07 1829.83 2485.84H1833.83L1838.14 2504.39C1839.14 2508.04 1841.45 2510.03 1845.14 2510.03H1879.93C1884.57 2510.03 1886.23 2507.03 1885.56 2503.03L1881.52 2480.54ZM1831.15 2445.42C1831.15 2469.93 1827.15 2475.24 1817.57 2475.24C1808.29 2475.24 1804.31 2469.93 1804.31 2445.75V2383.45C1804.31 2358.93 1808.62 2353.63 1817.57 2353.63C1827.18 2353.63 1831.15 2358.93 1831.15 2383.79V2445.42Z" fill="#F85606"/>
<path d="M1736.72 2321.49L1700.61 2347.34H1698.29V2327.46C1698.29 2323.46 1695.97 2321.16 1691.99 2321.16H1656.54C1652.54 2321.16 1650.24 2323.48 1650.24 2327.46V2503.73C1650.24 2507.73 1652.56 2510.03 1656.54 2510.03H1694.31C1698.62 2510.03 1700.61 2507.71 1700.61 2503.73V2398L1740.37 2369.51C1743.37 2367.19 1744.37 2365.2 1744.37 2361.89V2325.47C1744.34 2320.5 1740.7 2318.51 1736.72 2321.49Z" fill="#F85606"/>
<path d="M1631.69 2480.54V2327.46C1631.69 2323.46 1629.37 2321.16 1625.39 2321.16H1588C1583.69 2321.16 1581.37 2323.48 1581.37 2327.46V2340.71H1577.73C1574.42 2326.79 1564.48 2318.84 1546.25 2318.84C1518.75 2318.84 1503.18 2336.73 1503.18 2396.05V2435.48C1503.18 2494.79 1518.42 2512.35 1546.25 2512.35C1566.13 2512.35 1577.07 2503.07 1580.05 2485.84H1584.05L1588.35 2504.39C1589.35 2508.04 1591.67 2510.03 1595.35 2510.03H1630C1634.64 2510.03 1636.3 2507.03 1635.63 2503.03L1631.69 2480.54ZM1581.32 2445.42C1581.32 2469.93 1577.32 2475.24 1567.74 2475.24C1558.46 2475.24 1554.49 2469.93 1554.49 2445.75V2383.45C1554.49 2358.93 1558.79 2353.63 1567.74 2353.63C1577.35 2353.63 1581.32 2358.93 1581.32 2383.79V2445.42Z" fill="#F85606"/>
<path d="M1408.7 2258.21H1354.36C1350.05 2258.21 1348.06 2260.53 1348.06 2264.5V2503.73C1348.06 2507.73 1350.06 2510.03 1354.36 2510.03H1408.7C1462.7 2510.03 1487.56 2485.51 1487.56 2400.68V2367.55C1487.56 2280.41 1461.05 2258.21 1408.7 2258.21ZM1434.54 2423.88C1434.54 2460.99 1427.54 2468.28 1410.02 2468.28H1400.08V2299H1410C1427.56 2299 1434.52 2305.3 1434.52 2343.4L1434.54 2423.88Z" fill="#F85606"/>
<path d="M1247.45 2202.1L1134.13 2136.83C1127.51 2132.83 1122.21 2135.5 1122.21 2143.45V2282.62L1234.86 2347.56C1241.49 2351.56 1241.49 2357.5 1234.86 2361.48L1134.13 2419.48C1127.51 2423.48 1122.21 2420.81 1122.21 2412.86V2282.62L997 2354.85C992 2357.85 990 2361.15 990 2366.78V2505.28C990 2510.91 992 2514.28 997 2517.21L1115.29 2585.47C1120.29 2588.47 1124.23 2588.47 1129.2 2585.47L1247.49 2517.21C1252.49 2514.21 1254.49 2510.91 1254.49 2505.28V2214C1254.41 2208.4 1252.42 2205.08 1247.45 2202.1Z" fill="#F85606"/>
</g>
<g clip-path="url(#clip1_101_163)">
<path d="M1776.14 1835.27H1737.75L1777.55 1712.18C1778.68 1708.51 1776.71 1705.97 1773.04 1705.97H1690.32C1686.93 1705.97 1684.95 1707.97 1684.95 1711.33V1732.22C1684.95 1735.61 1686.95 1737.59 1690.32 1737.59H1724.2L1684.11 1860.68C1682.98 1864.35 1684.95 1866.89 1688.91 1866.89H1776.14C1779.53 1866.89 1781.51 1864.89 1781.51 1861.53V1840.64C1781.51 1837.25 1779.53 1835.27 1776.14 1835.27Z" fill="#F85606"/>
<path d="M1672.53 1841.77V1711.33C1672.53 1707.94 1670.53 1705.97 1667.17 1705.97H1635.27C1631.6 1705.97 1629.62 1707.97 1629.62 1711.33V1722.63H1626.52C1623.69 1710.77 1615.22 1704 1599.7 1704C1576.26 1704 1563 1719.24 1563 1769.77V1803.37C1563 1853.91 1576 1868.87 1599.71 1868.87C1616.64 1868.87 1625.96 1860.96 1628.5 1846.28H1631.89L1635.56 1862.09C1636.41 1865.2 1638.38 1866.89 1641.49 1866.89H1671.13C1675.13 1866.89 1676.5 1864.35 1675.93 1860.96L1672.53 1841.77ZM1629.62 1811.84C1629.62 1832.73 1626.23 1837.25 1618.05 1837.25C1610.14 1837.25 1606.75 1832.73 1606.75 1812.12V1759C1606.75 1738.11 1610.42 1733.6 1618.05 1733.6C1626.23 1733.6 1629.62 1738.11 1629.62 1759.29V1811.84Z" fill="#F85606"/>
<path d="M1549.16 1706.25L1518.39 1728.25H1516.39V1711.33C1516.39 1707.94 1514.39 1705.97 1511.03 1705.97H1480.84C1477.45 1705.97 1475.47 1707.97 1475.47 1711.33V1861.53C1475.47 1864.92 1477.47 1866.89 1480.84 1866.89H1513C1516.67 1866.89 1518.37 1864.89 1518.37 1861.53V1771.47L1552.25 1747.19C1554.79 1745.19 1555.63 1743.52 1555.63 1740.69V1709.64C1555.65 1705.4 1552.55 1703.71 1549.16 1706.25Z" fill="#F85606"/>
<path d="M1459.67 1841.77V1711.33C1459.67 1707.94 1457.67 1705.97 1454.3 1705.97H1422.4C1418.73 1705.97 1416.75 1707.97 1416.75 1711.33V1722.63H1413.65C1410.82 1710.77 1402.36 1704 1386.83 1704C1363.39 1704 1350.13 1719.25 1350.13 1769.78V1803.38C1350.13 1853.92 1363.13 1868.88 1386.83 1868.88C1403.77 1868.88 1413.08 1860.97 1415.62 1846.29H1419L1422.67 1862.1C1423.52 1865.21 1425.5 1866.9 1428.6 1866.9H1458.25C1462.25 1866.9 1463.61 1864.36 1463.04 1860.97L1459.67 1841.77ZM1416.75 1811.84C1416.75 1832.73 1413.37 1837.25 1405.18 1837.25C1397.27 1837.25 1393.89 1832.73 1393.89 1812.12V1759C1393.89 1738.11 1397.56 1733.6 1405.18 1733.6C1413.37 1733.6 1416.75 1738.11 1416.75 1759.29V1811.84Z" fill="#F85606"/>
<path d="M1269.67 1652.33H1223.36C1219.69 1652.33 1218 1654.33 1218 1657.69V1861.53C1218 1864.92 1219.69 1866.89 1223.36 1866.89H1269.67C1315.67 1866.89 1336.86 1846 1336.86 1773.73V1745.49C1336.86 1671.24 1314.27 1652.33 1269.67 1652.33ZM1291.67 1793.49C1291.67 1825.11 1285.74 1831.32 1270.77 1831.32H1262.32V1687.05H1270.79C1285.79 1687.05 1291.69 1692.42 1291.69 1724.88L1291.67 1793.49Z" fill="#F85606"/>
<path d="M1633 1197.1L1519.64 1131.83C1513 1127.85 1507.71 1130.5 1507.71 1138.45V1277.62L1620.37 1342.56C1626.99 1346.56 1626.99 1352.5 1620.37 1356.48L1519.64 1414.48C1513.01 1418.48 1507.71 1415.81 1507.71 1407.86V1277.62L1382.46 1349.85C1377.46 1352.85 1375.46 1356.15 1375.46 1361.78V1500.28C1375.46 1505.91 1377.46 1509.28 1382.46 1512.21L1500.75 1580.46C1505.75 1583.46 1509.7 1583.46 1514.67 1580.46L1633 1512.21C1638 1509.21 1640 1505.91 1640 1500.28V1209C1639.92 1203.4 1637.93 1200.08 1633 1197.1Z" fill="#F85606"/>
</g>
<g clip-path="url(#clip2_101_163)">
<path d="M1625.45 479.1L1512.13 413.83C1505.51 409.83 1500.21 412.5 1500.21 420.45V559.62L1612.86 624.56C1619.49 628.56 1619.49 634.5 1612.86 638.48L1512.13 696.48C1505.51 700.48 1500.21 697.81 1500.21 689.86V559.62L1375 631.85C1370 634.85 1368 638.15 1368 643.78V782.28C1368 787.91 1370 791.28 1375 794.21L1493.29 862.46C1498.29 865.46 1502.23 865.46 1507.2 862.46L1625.49 794.21C1630.49 791.21 1632.49 787.91 1632.49 782.28V491C1632.41 485.4 1630.42 482.08 1625.45 479.1Z" fill="#F85606"/>
</g>
<defs>
<clipPath id="clip0_101_163">
<rect width="1019.41" height="452.7" fill="white" transform="translate(990 2135)"/>
</clipPath>
<clipPath id="clip1_101_163">
<rect width="563.51" height="738.87" fill="white" transform="translate(1218 1130)"/>
</clipPath>
<clipPath id="clip2_101_163">
<rect width="264.41" height="452.7" fill="white" transform="translate(1368 412)"/>
</clipPath>
</defs>
</svg>
